<svg xmlns="http://www.w3.org/2000/svg" width="320" height="320" viewBox="0 0 320 320" role="img" aria-labelledby="title desc">
  <title id="title">ProductHunter Pro QR Placeholder</title>
  <desc id="desc">Placeholder QR code image for manual Pro upgrade payment.</desc>
  <rect width="320" height="320" rx="24" fill="#ffffff"/>
  <rect x="16" y="16" width="288" height="288" rx="18" fill="#f8fafc" stroke="#e2e8f0" stroke-width="2"/>
  <g fill="#0f172a">
    <rect x="40" y="40" width="72" height="72" rx="8"/>
    <rect x="56" y="56" width="40" height="40" rx="4" fill="#ffffff"/>
    <rect x="64" y="64" width="24" height="24" rx="3"/>
    <rect x="208" y="40" width="72" height="72" rx="8"/>
    <rect x="224" y="56" width="40" height="40" rx="4" fill="#ffffff"/>
    <rect x="232" y="64" width="24" height="24" rx="3"/>
    <rect x="40" y="208" width="72" height="72" rx="8"/>
    <rect x="56" y="224" width="40" height="40" rx="4" fill="#ffffff"/>
    <rect x="64" y="232" width="24" height="24" rx="3"/>
    <rect x="136" y="48" width="16" height="16"/>
    <rect x="168" y="48" width="16" height="16"/>
    <rect x="136" y="80" width="48" height="16"/>
    <rect x="152" y="112" width="16" height="32"/>
    <rect x="192" y="136" width="16" height="16"/>
    <rect x="224" y="136" width="40" height="16"/>
    <rect x="128" y="160" width="32" height="16"/>
    <rect x="176" y="160" width="16" height="48"/>
    <rect x="208" y="176" width="16" height="16"/>
    <rect x="240" y="176" width="32" height="16"/>
    <rect x="136" y="224" width="16" height="16"/>
    <rect x="168" y="224" width="48" height="16"/>
    <rect x="232" y="224" width="16" height="48"/>
    <rect x="136" y="264" width="48" height="16"/>
    <rect x="200" y="264" width="16" height="16"/>
    <rect x="264" y="264" width="16" height="16"/>
  </g>
  <rect x="96" y="144" width="128" height="32" rx="16" fill="#ff4d2d"/>
  <text x="160" y="165" text-anchor="middle" font-family="Arial, sans-serif" font-size="13" font-weight="700" fill="#ffffff">PRO UPGRADE</text>
</svg>
